<svg width="38" height="37" viewBox="0 0 38 37" fill="none" xmlns="http://www.w3.org/2000/svg">
<path d="M15.3177 25.6556C17.4078 24.9432 19.3958 23.9898 21.2443 22.8213M21.2443 22.8213C24.5352 20.7411 27.384 17.9798 29.5797 14.686L36.3627 4.51151C36.5834 4.18053 36.7012 3.79163 36.7012 3.39384C36.7012 2.28101 35.799 1.37891 34.6862 1.37891C34.2884 1.37891 33.8996 1.49666 33.5685 1.71732L23.394 8.5003C20.1003 10.6961 17.339 13.545 15.2588 16.8358M21.2443 22.8213C20.058 20.1622 17.9179 18.0221 15.2588 16.8358M12.4199 22.776C13.1327 20.6809 14.0878 18.6883 15.2588 16.8358" stroke="white" stroke-width="2" stroke-linecap="round" stroke-linejoin="round"/>
<path d="M15.318 25.6556C14.5381 23.7339 12.6531 22.3789 10.4515 22.3789C7.55205 22.3789 5.20154 24.7293 5.20154 27.6289C5.20154 29.8035 3.43863 31.5664 1.264 31.5664C1.17528 31.5664 1.08726 31.5634 1 31.5577C2.36038 33.9163 4.90805 35.5039 7.8265 35.5039C12.1634 35.5039 15.6815 31.9981 15.7014 27.6658C15.7015 27.6536 15.7015 27.6413 15.7015 27.6289C15.7015 26.931 15.5653 26.2648 15.318 25.6556Z" stroke="url(#paint0_linear_2656_4594)" stroke-width="2" stroke-linecap="round" stroke-linejoin="round"/>
<defs>
<linearGradient id="paint0_linear_2656_4594" x1="1" y1="26.5039" x2="15.7016" y2="26.508" gradientUnits="userSpaceOnUse">
<stop stop-color="#FF347D"/>
<stop offset="1" stop-color="#827DED"/>
</linearGradient>
</defs>
</svg>
