<svg width="22" height="29" viewBox="0 0 22 29" fill="none" xmlns="http://www.w3.org/2000/svg">
<path d="M17.2218 4.19531H20.6249C20.7212 4.19531 20.8155 4.23385 20.8866 4.30564C20.958 4.37776 20.9999 4.47764 20.9999 4.58382V27.4941C20.9999 27.6003 20.958 27.7002 20.8866 27.7723C20.8155 27.8441 20.7212 27.8826 20.6249 27.8826H1.37499C1.27871 27.8826 1.18437 27.8441 1.11328 27.7723C1.04186 27.7002 1 27.6003 1 27.4941V4.58382C1 4.47764 1.04186 4.37776 1.11328 4.30564C1.18438 4.23384 1.27871 4.19531 1.37499 4.19531H5.14609C5.16894 4.19531 5.18747 4.21384 5.18747 4.23669C5.18747 5.36411 6.10142 6.27807 7.22884 6.27807H14.771C15.8985 6.27807 16.8124 5.36411 16.8124 4.23669C16.8124 4.21384 16.8309 4.19531 16.8538 4.19531H17.2218Z" stroke="white" stroke-width="2"/>
<path d="M13.0625 11.5271L7.56249 17.0818H14.4402L8.93749 22.6358M6.1875 1.11328H15.8124V5.27879H6.1875V1.11328Z" stroke="url(#paint0_linear_2656_4630)" stroke-width="1.5" stroke-linecap="round" stroke-linejoin="round"/>
<defs>
<linearGradient id="paint0_linear_2656_4630" x1="6.1875" y1="11.8745" x2="15.8124" y2="11.8745" gradientUnits="userSpaceOnUse">
<stop stop-color="#FF347D"/>
<stop offset="1" stop-color="#827DED"/>
</linearGradient>
</defs>
</svg>
